<svg xmlns="http://www.w3.org/2000/svg" viewBox="0 0 512 512">
  <!-- Bar chart - 5 bars, bottom aligned at y=480, top-only rounded corners -->
  <path d="M32,480 V372 Q32,360 44,360 H96 Q108,360 108,372 V480 Z" fill="#ff0000" opacity="0.7"/>
  <path d="M128,480 V172 Q128,160 140,160 H192 Q204,160 204,172 V480 Z" fill="#ff0000" opacity="0.8"/>
  <path d="M224,480 V232 Q224,220 236,220 H288 Q300,220 300,232 V480 Z" fill="#ff0000" opacity="0.75"/>
  <path d="M320,480 V112 Q320,100 332,100 H384 Q396,100 396,112 V480 Z" fill="#ff0000" opacity="0.9"/>
  <path d="M416,480 V64 Q416,52 428,52 H480 Q492,52 492,64 V480 Z" fill="#ff0000"/>
</svg>
